<svg width="855" height="855" viewBox="0 0 855 855" fill="none" xmlns="http://www.w3.org/2000/svg">
<path d="M427.27 854.54C663.245 854.54 854.54 663.245 854.54 427.27C854.54 191.295 663.245 0 427.27 0C191.295 0 0 191.295 0 427.27C0 663.245 191.295 854.54 427.27 854.54Z" fill="#01444F"/>
<path d="M351.21 191.92C351.208 188.069 352.208 184.284 354.112 180.937C356.016 177.59 358.759 174.796 362.07 172.83C357.328 173.144 352.759 174.733 348.846 177.431C344.933 180.128 341.821 183.832 339.841 188.152C337.86 192.473 337.084 197.248 337.594 201.973C338.104 206.698 339.881 211.197 342.738 214.995C345.595 218.793 349.426 221.748 353.824 223.548C358.223 225.348 363.026 225.926 367.726 225.22C372.425 224.515 376.847 222.552 380.523 219.54C384.2 216.529 386.994 212.579 388.61 208.11C385.452 211.076 381.495 213.054 377.227 213.799C372.959 214.544 368.567 214.024 364.591 212.303C360.615 210.582 357.229 207.735 354.851 204.113C352.474 200.491 351.208 196.252 351.21 191.92Z" fill="white"/>
<path d="M181.94 172.03L177.41 151.24L172.88 172.03L152.09 176.56L172.88 181.09L177.41 201.88L181.94 181.09L202.73 176.56L181.94 172.03Z" fill="white"/>
<path d="M483.66 121.98L481.15 133.49L483.66 145L486.17 133.49L483.66 121.98Z" fill="white"/>
<path d="M495.17 133.49L483.66 136L472.15 133.49L483.66 130.99L495.17 133.49Z" fill="white"/>
<path d="M214.24 280.31L211.36 293.55L214.24 306.79L217.13 293.55L214.24 280.31Z" fill="white"/>
<path d="M227.48 293.55L214.24 296.44L201 293.55L214.24 290.67L227.48 293.55Z" fill="white"/>
<path d="M284.96 169.46L294.41 167.4L284.96 165.34L282.9 155.89L280.85 165.34L271.39 167.4L280.85 169.46L282.9 178.91L284.96 169.46Z" fill="white"/>
<path d="M579.87 233.11L577.37 244.62L579.87 256.13L582.38 244.62L579.87 233.11Z" fill="white"/>
<path d="M591.38 244.62L579.87 247.13L568.36 244.62L579.87 242.11L591.38 244.62Z" fill="white"/>
<path d="M662.51 492.19V496.39H780.02L780.82 492.19H662.51Z" fill="white"/>
<path d="M187.19 492.19H75.8301L76.6201 496.39H187.19V492.19Z" fill="white"/>
<path d="M250.24 462.21H244.81L212.65 497.89V462.21H208.62V526.42H212.65V503.27L219.73 495.58L247.51 526.25L247.66 526.42H253.09L222.31 492.94L250.24 462.21Z" fill="white"/>
<path d="M298.53 462.21H294.26L267.5 526.42H272.09L279.09 509.42H313.67L320.67 526.42H325.26L298.63 462.52L298.53 462.21ZM280.65 505.61L296.39 467.53L312.13 505.61H280.65Z" fill="white"/>
<path d="M381.68 494.16C385.34 490.86 387.2 486.3 387.2 480.62C387.2 474.94 385.36 470.4 381.73 467.13C377.954 463.81 373.056 462.051 368.03 462.21H345.74V526.42H349.74V499.13H364.14L383.38 526.42H388.49L369 499.11C373.685 499.039 378.187 497.282 381.68 494.16ZM349.77 495.28V466.06H368C372.45 466.06 376.08 467.42 378.78 470.13C380.135 471.511 381.194 473.153 381.894 474.956C382.593 476.76 382.919 478.687 382.85 480.62C382.947 482.587 382.627 484.552 381.913 486.387C381.198 488.223 380.104 489.886 378.703 491.27C377.301 492.653 375.623 493.726 373.779 494.417C371.935 495.108 369.966 495.402 368 495.28H349.77Z" fill="white"/>
<path d="M434.27 521.1L409.96 462.21H405.37L432 526.11L432.13 526.42H436.4L463.16 462.21H458.57L434.27 521.1Z" fill="white"/>
<path d="M512 461.17C502.86 461.17 495.4 464.37 489.83 470.67C484.26 476.97 481.46 484.93 481.46 494.36C481.46 503.79 484.27 511.76 489.83 518.05C495.39 524.34 502.83 527.55 512 527.55C521.17 527.55 528.52 524.36 534.12 518.05C539.72 511.74 542.53 503.79 542.53 494.36C542.53 484.93 539.7 476.96 534.12 470.67C528.54 464.38 521 461.17 512 461.17ZM531 515.5C526.22 520.95 519.83 523.71 512 523.71C504.17 523.71 497.69 520.95 492.95 515.5C488.21 510.05 485.77 502.92 485.77 494.36C485.77 485.8 488.19 478.62 492.95 473.18C497.71 467.74 504.1 465.01 512 465.01C519.9 465.01 526.22 467.76 531 473.18C535.78 478.6 538.22 485.75 538.22 494.36C538.22 502.97 535.76 510.02 531 515.5Z" fill="white"/>
<path d="M613.05 462.21V518.9L571.16 462.21H567.37V526.42H571.4V469.17L613.14 526.21L613.29 526.42H617.08V462.21H613.05Z" fill="white"/>
<path d="M641.41 462.21H637.38V526.41H641.41V462.21Z" fill="white"/>
<path d="M658.37 596.86C658.373 596.653 658.334 596.448 658.255 596.257C658.176 596.066 658.058 595.894 657.91 595.75C657.605 595.449 657.194 595.28 656.765 595.28C656.336 595.28 655.925 595.449 655.62 595.75C655.464 595.889 655.34 596.061 655.255 596.252C655.171 596.443 655.128 596.651 655.13 596.86C655.13 597.29 655.301 597.702 655.604 598.005C655.908 598.309 656.32 598.48 656.75 598.48C657.18 598.48 657.592 598.309 657.895 598.005C658.199 597.702 658.37 597.29 658.37 596.86Z" fill="#D8A66F"/>
<path d="M428.32 776.61C274 776.61 142.7 676.02 96.6101 536.94H87.0801C90.3201 547.013 93.9867 556.953 98.0801 566.76C125.538 631.632 171.498 686.979 230.22 725.889C288.943 764.8 357.826 785.551 428.27 785.551C498.714 785.551 567.597 764.8 626.32 725.889C685.042 686.979 731.002 631.632 758.46 566.76C762.607 556.947 766.293 547.007 769.52 536.94H760C714 676.02 582.66 776.61 428.32 776.61Z" fill="#D8A66F"/>
<path d="M133.22 422.77H177.41V415.29H141.62V392.03H176.71V384.55H141.62V362.81H177.41V355.32H133.22V422.77Z" fill="#D8A66F"/>
<path d="M244.561 404.16C244.654 400.592 243.603 397.087 241.561 394.16C239.704 391.515 237.149 389.437 234.181 388.16C231.247 386.913 228.047 385.733 224.581 384.62C221.114 383.506 217.921 382.573 215.001 381.82C212.327 381.202 209.813 380.03 207.621 378.38C206.687 377.713 205.927 376.832 205.405 375.811C204.883 374.789 204.614 373.657 204.621 372.51C204.596 371.002 204.938 369.51 205.617 368.164C206.297 366.817 207.293 365.656 208.521 364.78C211.42 362.681 214.944 361.624 218.521 361.78C226.614 361.78 233.117 364.473 238.031 369.86L243.091 363.7C237.164 357.433 229.164 354.296 219.091 354.29C212.424 354.29 206.897 356.026 202.511 359.5C200.422 361.066 198.736 363.108 197.593 365.455C196.451 367.803 195.884 370.389 195.941 373C195.857 375.816 196.555 378.601 197.956 381.045C199.358 383.489 201.408 385.498 203.881 386.85C206.345 388.193 208.934 389.294 211.611 390.14C214.437 391.053 217.287 391.88 220.161 392.62C222.801 393.287 225.399 394.112 227.941 395.09C230.112 395.898 232.066 397.199 233.651 398.89C235.152 400.52 235.953 402.675 235.881 404.89C235.871 406.444 235.523 407.978 234.86 409.384C234.197 410.79 233.234 412.034 232.041 413.03C229.467 415.363 225.467 416.526 220.041 416.52C216.012 416.58 212.021 415.75 208.351 414.089C204.681 412.428 201.423 409.976 198.811 406.91L193.811 413.29C200.151 420.43 208.781 424 219.701 424C228.134 424 234.387 422.08 238.461 418.24C240.421 416.463 241.98 414.287 243.032 411.859C244.084 409.431 244.605 406.806 244.561 404.16Z" fill="#D8A66F"/>
<path d="M316.4 422.77V355.32H308V384.35H268.57V355.32H260.17V422.77H268.57V391.83H308V422.77H316.4Z" fill="#D8A66F"/>
<path d="M392.11 364.12C385.87 357.513 377.83 354.21 367.99 354.21C358.15 354.21 350.093 357.513 343.82 364.12C337.62 370.727 334.52 379.06 334.52 389.12C334.52 399.18 337.62 407.513 343.82 414.12C350.02 420.727 358.077 424.03 367.99 424.03C374.414 424.171 380.74 422.433 386.19 419.03L392.76 426.03L398.63 420.97L392.16 414.09C398.36 407.55 401.46 399.26 401.46 389.22C401.46 379.18 398.343 370.813 392.11 364.12ZM386.6 408.01L377.09 397.69L371.23 402.69L380.83 413.1C376.956 415.425 372.508 416.617 367.99 416.54C360.51 416.54 354.51 413.963 349.99 408.81C345.47 403.657 343.21 397.1 343.21 389.14C343.21 381.14 345.47 374.567 349.99 369.42C354.51 364.273 360.51 361.71 367.99 361.73C375.397 361.73 381.38 364.293 385.94 369.42C390.5 374.547 392.773 381.12 392.76 389.14C392.76 396.667 390.707 402.957 386.6 408.01Z" fill="#D8A66F"/>
<path d="M637 422.77L609.8 355.32H599.33L572.23 422.77H581.84L587.84 407.77H621.41L627.41 422.77H637ZM590.28 400.32L604.64 364.02L618.9 400.32H590.28Z" fill="#D8A66F"/>
<path d="M523.08 422.73H525.31V376.73L517.31 374.51V414.38C514.742 414.611 512.278 415.504 510.157 416.971C508.037 418.438 506.332 420.429 505.21 422.75H523.13L523.08 422.73Z" fill="#D8A66F"/>
<path d="M529.15 362.4C520.97 361.9 516.86 350.4 514.66 344.28C514.18 342.97 513.78 341.83 513.39 340.95L506 344.19C506.27 344.82 506.64 345.83 507.05 347C509.69 354.34 515.16 369.61 528.64 370.44C538.29 371.04 552.64 378.13 552.64 395.22C552.782 401.921 551.05 408.529 547.64 414.3C544.95 414.423 542.344 415.272 540.099 416.758C537.854 418.245 536.054 420.312 534.89 422.74H551.51L552.24 421.81C555.87 417.1 560.77 408.33 560.77 395.23C560.74 374.96 544.85 363.38 529.15 362.4Z" fill="#D8A66F"/>
<path d="M766.9 370.51L766.45 369.51C764.45 364.74 760.98 356.75 751.99 356.75C737.47 356.75 734.87 346.25 734.63 345.08L726.72 346.58C727.81 352.33 733.58 362.75 747.72 364.53L724 420.97L695 356.97V356.73H694.89V356.67L694.73 356.74C685.97 356.93 682.59 364.74 680.57 369.48L680.12 370.48C678.45 374.31 667.86 402.27 663.32 414.29C660.679 414.457 658.13 415.324 655.935 416.802C653.74 418.28 651.978 420.316 650.83 422.7H668.7C674.46 407.43 685.84 377.4 687.45 373.7L687.92 372.61C688.673 370.682 689.622 368.835 690.75 367.1L712.9 415.93C710.036 417.41 707.733 419.783 706.34 422.69H732L755.62 366.38C757.068 368.272 758.221 370.373 759.04 372.61L759.51 373.7C760.9 376.88 769.57 399.7 775.61 415.7C772.677 417.178 770.317 419.587 768.9 422.55H786.82C786.15 420.75 769 375.3 766.9 370.51Z" fill="#D8A66F"/>
<path d="M113.35 390.11C117.011 386.188 119.052 381.025 119.061 375.66C119.07 370.294 117.048 365.125 113.4 361.19C109.62 357.276 104.463 355.32 97.93 355.32H77.18C72.6585 377.525 70.2544 400.11 70 422.77H79C79.1067 413.75 79.5633 404.816 80.37 395.97H97.93C104.403 395.97 109.543 394.016 113.35 390.11ZM81.11 388.49C82.07 379.823 83.35 371.263 84.95 362.81H96.95C98.724 362.736 100.495 363.015 102.16 363.631C103.826 364.248 105.352 365.189 106.65 366.4C109.056 368.878 110.401 372.196 110.401 375.65C110.401 379.104 109.056 382.422 106.65 384.9C105.35 386.109 103.824 387.049 102.159 387.665C100.494 388.281 98.7238 388.562 96.95 388.49H81.11Z" fill="#D8A66F"/>
<path d="M759.7 329.26C759.2 328.14 758.64 326.74 758 325.14C752.39 311.14 740.71 282.04 714 282.04C683.14 282.04 672.4 309.73 666.63 324.6C666.02 326.17 665.46 327.6 664.93 328.89C659.41 342.17 656.24 347.58 647.04 347.58C637.84 347.58 631.64 334.48 629.96 329.43C628.59 325.33 623.29 310.08 620.83 303.03H612.3C613.88 307.56 620.77 327.34 622.3 332.03C625.22 340.82 633.73 355.69 647.02 355.69C662.51 355.69 667.51 343.69 672.35 332.04C672.9 330.71 673.49 329.2 674.12 327.57C679.55 313.57 688.63 290.15 713.98 290.15C735.21 290.15 745.14 314.89 750.47 328.15C751.16 329.85 751.75 331.33 752.27 332.52C756.74 342.65 763.51 345.05 769.09 345.27C769.09 345.27 770.93 355.94 771.31 362.78L779.6 361.18C779.6 361.18 778.28 341.97 776.43 336.69L771.86 337.13C768.21 337.5 763.53 337.96 759.7 329.26Z" fill="#D8A66F"/>
<path d="M568.81 356.76L563 337L559.68 337.33C554.92 337.81 549.56 337.22 546.06 329.26C545.56 328.14 545 326.74 544.36 325.13C538.74 311.13 527.07 282.04 500.36 282.04C469.5 282.04 458.76 309.73 452.99 324.6C452.38 326.17 451.82 327.6 451.29 328.89C445.77 342.17 442.6 347.58 433.4 347.58C424.2 347.58 418 334.48 416.32 329.43C415.01 325.52 409.83 310.89 407.06 303.08H398.52C400.79 309.49 407.24 327.68 408.68 331.98C411.6 340.77 420.1 355.61 433.39 355.61C448.88 355.61 453.88 343.61 458.72 331.96C459.27 330.63 459.86 329.12 460.49 327.49C465.92 313.49 475 290.07 500.35 290.07C521.58 290.07 531.51 314.81 536.84 328.07C537.53 329.78 538.12 331.26 538.65 332.45C542.38 340.91 548.56 345.26 557.07 345.45L561.07 359.01L568.81 356.76Z" fill="#D8A66F"/>
<path d="M390.57 292.15H416L431.16 333.77L438.72 331.01L421.63 284.1H390.57C379.05 284.1 377.97 301.1 377.88 303.1H386C386.22 298.98 387.91 292.15 390.57 292.15Z" fill="#D8A66F"/>
<path d="M604.66 292.15H630.11L645.27 333.77L652.83 331.01L635.75 284.1H604.66C593.14 284.1 592.06 301.1 591.97 303.1H600C600.31 298.98 602 292.15 604.66 292.15Z" fill="#D8A66F"/>
<path d="M433.11 422.71C438.87 407.43 450.81 375.95 452.42 372.27L452.89 371.19C455.27 365.63 456.78 363.3 459.95 363.3H488.84V355.25H460C451 355.25 447.58 363.25 445.53 368.01L445.09 369.01C443.34 373.01 431.89 403.27 427.73 414.29C425.091 414.46 422.545 415.328 420.352 416.806C418.159 418.284 416.398 420.318 415.25 422.7H433.17L433.11 422.71Z" fill="#D8A66F"/>
<path d="M477.42 414.61C475.156 415.057 473.027 416.024 471.201 417.435C469.376 418.846 467.903 420.662 466.9 422.74H489.19L468.75 370L461.24 372.91L471.88 400.33H450.35L447.57 407.81H474.78L477.42 414.61Z" fill="#D8A66F"/>
<path d="M167.7 194.88L166.16 187.81L162.45 187C121.198 232.529 92.3839 287.925 78.79 347.84H88.08C101.399 290.993 128.775 238.399 167.7 194.88Z" fill="#D8A66F"/>
<path d="M195.73 166.85C259.633 109.526 342.473 77.8522 428.32 77.9198C577.06 77.9198 704.32 171.35 754.66 302.6C755.788 307.876 757.607 312.98 760.07 317.78C764.47 328.89 767.2 328.2 773.07 329.13C756.415 270.507 725.08 217.102 682.03 173.966C638.98 130.83 585.637 99.39 527.047 82.6186C468.458 65.8473 406.558 64.2995 347.204 78.1218C287.849 91.9441 233.002 120.679 187.85 161.61L188.67 165.34L195.73 166.85Z" fill="#D8A66F"/>
</svg>
