<svg width="24" height="24" viewBox="0 0 24 24" fill="none" xmlns="http://www.w3.org/2000/svg">
<g id="mingcute:telegram-fill" clip-path="url(#clip0_73_50)">
<g id="Group">
<path id="Vector" fill-rule="evenodd" clip-rule="evenodd" d="M20.0166 3.11747C20.2638 3.01346 20.5342 2.97758 20.7999 3.01358C21.0656 3.04958 21.3168 3.15613 21.5273 3.32215C21.7379 3.48817 21.9001 3.70758 21.997 3.95755C22.094 4.20752 22.1222 4.47891 22.0786 4.74347L19.8106 18.5005C19.5906 19.8275 18.1346 20.5885 16.9176 19.9275C15.8996 19.3745 14.3876 18.5225 13.0276 17.6335C12.3476 17.1885 10.2646 15.7635 10.5206 14.7495C10.7406 13.8825 14.2406 10.6245 16.2406 8.68747C17.0256 7.92647 16.6676 7.48747 15.7406 8.18747C13.4376 9.92547 9.74264 12.5685 8.52064 13.3125C7.44264 13.9685 6.88064 14.0805 6.20864 13.9685C4.98264 13.7645 3.84564 13.4485 2.91764 13.0635C1.66364 12.5435 1.72464 10.8195 2.91664 10.3175L20.0166 3.11747Z" fill="#162022"/>
</g>
</g>
<defs>
<clipPath id="clip0_73_50">
<rect width="24" height="24" fill="white"/>
</clipPath>
</defs>
</svg>
