<svg width="99" height="57" viewBox="0 0 99 57" fill="none" xmlns="http://www.w3.org/2000/svg">
<path d="M38.8311 10.5469C38.8308 10.0151 38.9689 9.49245 39.2319 9.03023C39.4948 8.56801 39.8736 8.18217 40.3308 7.91064C39.6759 7.95399 39.0449 8.17351 38.5046 8.54599C37.9642 8.91847 37.5345 9.43006 37.261 10.0266C36.9875 10.6232 36.8803 11.2827 36.9507 11.9352C37.0212 12.5877 37.2666 13.209 37.6612 13.7335C38.0557 14.258 38.5847 14.6661 39.1921 14.9147C39.7995 15.1632 40.4628 15.243 41.1118 15.1456C41.7609 15.0482 42.3715 14.7772 42.8792 14.3612C43.3869 13.9453 43.7727 13.3999 43.9959 12.7827C43.5598 13.1924 43.0134 13.4655 42.424 13.5684C41.8346 13.6713 41.228 13.5994 40.6789 13.3617C40.1298 13.124 39.6623 12.7309 39.3339 12.2307C39.0056 11.7306 38.8308 11.1452 38.8311 10.5469Z" fill="#162022"/>
<path d="M15.4557 7.80024L14.8301 4.9292L14.2045 7.80024L11.3335 8.42582L14.2045 9.0514L14.8301 11.9224L15.4557 9.0514L18.3267 8.42582L15.4557 7.80024Z" fill="#162022"/>
<path d="M57.1223 0.888428L56.7756 2.47793L57.1223 4.06743L57.4689 2.47793L57.1223 0.888428Z" fill="#162022"/>
<path d="M58.7122 2.47781L57.1227 2.82444L55.5332 2.47781L57.1227 2.13257L58.7122 2.47781Z" fill="#162022"/>
<path d="M19.9165 22.7534L19.5188 24.5818L19.9165 26.4102L20.3156 24.5818L19.9165 22.7534Z" fill="#162022"/>
<path d="M21.7442 24.5818L19.9158 24.9809L18.0874 24.5818L19.9158 24.1841L21.7442 24.5818Z" fill="#162022"/>
<path d="M29.6825 7.44526L30.9876 7.16078L29.6825 6.8763L29.3981 5.57129L29.1136 6.8763L27.8086 7.16078L29.1136 7.44526L29.3981 8.75028L29.6825 7.44526Z" fill="#162022"/>
<path d="M70.4091 16.2351L70.0625 17.8246L70.4091 19.4141L70.7558 17.8246L70.4091 16.2351Z" fill="#162022"/>
<path d="M71.9978 17.8247L70.4083 18.1713L68.8188 17.8247L70.4083 17.478L71.9978 17.8247Z" fill="#162022"/>
<path d="M81.8213 52.0134V52.5934H98.0491L98.1596 52.0134H81.8213Z" fill="#162022"/>
<path d="M16.1789 52.0134H0.801758L0.91086 52.5934H16.1789V52.0134Z" fill="#162022"/>
<path d="M24.8875 47.8733H24.1376L19.6964 52.8006V47.8733H19.1399V56.7405H19.6964V53.5436L20.6741 52.4816L24.5105 56.717L24.5298 56.7405H25.2811L21.0291 52.117L24.8875 47.8733Z" fill="#162022"/>
<path d="M31.5562 47.8733H30.9706L27.2751 56.7405H27.909L28.8757 54.3929H33.6511L34.6178 56.7405H35.2516L31.5727 47.9161L31.5562 47.8733ZM29.087 53.8667L31.2606 48.608L33.4343 53.8667H29.087Z" fill="#162022"/>
<path d="M43.0388 52.2855C43.5442 51.8297 43.8011 51.2 43.8011 50.4156C43.8011 49.6312 43.547 49.0043 43.0443 48.5527C42.5236 48.0939 41.8475 47.8509 41.1538 47.8732H38.0742V56.7405H38.6266V52.9718H40.6152L43.2708 56.7405H43.9779L41.2808 52.969C41.9301 52.9609 42.5546 52.7181 43.0388 52.2855ZM38.6321 52.4401V48.4049H41.1538C41.7683 48.4049 42.2696 48.5927 42.6425 48.967C42.8295 49.1577 42.9758 49.3845 43.0724 49.6335C43.169 49.8825 43.214 50.1486 43.2046 50.4156C43.2179 50.6873 43.1737 50.9587 43.0751 51.2121C42.9764 51.4655 42.8253 51.6953 42.6318 51.8863C42.4382 52.0774 42.2065 52.2255 41.9519 52.3209C41.6972 52.4163 41.4252 52.457 41.1538 52.4401H38.6321Z" fill="#162022"/>
<path d="M50.2997 56.0058L46.9439 47.8733H46.3101L49.9876 56.6977L50.0055 56.7405H50.5952L54.2907 47.8733H53.6568L50.2997 56.0058Z" fill="#162022"/>
<path d="M61.0317 47.7297C59.7695 47.7297 58.7393 48.1716 57.9701 49.0417C57.2009 49.9117 56.8142 51.0109 56.8142 52.3132C56.8142 53.6154 57.2023 54.7161 57.9701 55.5847C58.7379 56.4533 59.7654 56.8966 61.0317 56.8966C62.2981 56.8966 63.3117 56.4561 64.0864 55.5847C64.8612 54.7133 65.2478 53.6154 65.2478 52.3132C65.2478 51.0109 64.857 49.9103 64.0864 49.0417C63.3158 48.173 62.2842 47.7297 61.0317 47.7297ZM63.6556 55.2326C62.9954 55.9852 62.113 56.3663 61.0317 56.3663C59.9504 56.3663 59.0555 55.9852 58.4079 55.2326C57.7602 54.4799 57.4163 53.4953 57.4163 52.3132C57.4163 51.1311 57.7505 50.1395 58.4079 49.3883C59.0652 48.637 59.9476 48.26 61.0317 48.26C62.1158 48.26 62.9954 48.6398 63.6556 49.3883C64.3157 50.1368 64.6526 51.1242 64.6526 52.3132C64.6526 53.5022 64.317 54.4758 63.6556 55.2326Z" fill="#162022"/>
<path d="M74.9904 47.8733V55.702L69.2055 47.8733H68.6821V56.7405H69.2387V48.8345L75.0028 56.7115L75.0235 56.7405H75.5469V47.8733H74.9904Z" fill="#162022"/>
<path d="M78.9071 47.8733H78.3506V56.7391H78.9071V47.8733Z" fill="#162022"/>
<path d="M8.72754 42.4267H14.8301V41.3937H9.88619V38.1816H14.732V37.1486H9.88619V34.1464H14.8301V33.1121H8.72754V42.4267Z" fill="#162022"/>
<path d="M24.1016 39.8566C24.1146 39.3638 23.9695 38.8798 23.6873 38.4756C23.4309 38.1103 23.0781 37.8234 22.6681 37.647C22.2631 37.4748 21.8207 37.3119 21.341 37.1581C20.8614 37.0044 20.4195 36.8764 20.0153 36.7742C19.6457 36.6888 19.2981 36.527 18.9948 36.2992C18.8659 36.207 18.761 36.0853 18.6889 35.9443C18.6169 35.8032 18.5797 35.6469 18.5805 35.4885C18.5771 35.2803 18.6243 35.0743 18.7181 34.8884C18.812 34.7024 18.9495 34.5421 19.1191 34.4211C19.5195 34.1313 20.0062 33.9853 20.5 34.0068C21.6177 34.0068 22.5158 34.3787 23.1943 35.1226L23.8931 34.2719C23.0728 33.4065 21.968 32.9733 20.5787 32.9724C19.6581 32.9724 18.8949 33.2122 18.2891 33.6919C18.0006 33.9082 17.7678 34.1901 17.61 34.5144C17.4522 34.8386 17.374 35.1957 17.3818 35.5562C17.3705 35.9449 17.4668 36.3293 17.66 36.6667C17.8532 37.0042 18.1359 37.2818 18.4769 37.4689C18.8179 37.6541 19.1758 37.8062 19.5458 37.9232C19.9361 38.0493 20.3293 38.1635 20.7251 38.2657C21.0902 38.3578 21.4495 38.4717 21.8009 38.6068C22.1008 38.7185 22.3707 38.8981 22.5895 39.1315C22.7968 39.3567 22.9074 39.6542 22.8974 39.9601C22.8962 40.1748 22.848 40.3866 22.7564 40.5808C22.6649 40.7749 22.532 40.9468 22.3671 41.0842C22.0117 41.4065 21.4593 41.5671 20.7099 41.5662C20.1537 41.5746 19.6024 41.4599 19.0956 41.2305C18.5888 41.0011 18.1389 40.6626 17.7781 40.2391L17.0876 41.1201C17.9632 42.1062 19.155 42.5992 20.663 42.5992C21.8276 42.5992 22.6912 42.334 23.2537 41.8037C23.5259 41.5586 23.7424 41.2579 23.8887 40.922C24.035 40.5862 24.1076 40.2228 24.1016 39.8566Z" fill="#162022"/>
<path d="M34.0229 42.4267V33.1121H32.8642V37.121H27.4191V33.1121H26.259V42.4267H27.4191V38.154H32.8642V42.4267H34.0229Z" fill="#162022"/>
<path d="M44.4793 34.3273C43.6175 33.4149 42.5072 32.9587 41.1484 32.9587C39.7895 32.9587 38.6769 33.4149 37.8106 34.3273C36.9544 35.2397 36.5262 36.3905 36.5262 37.7797C36.5262 39.169 36.9544 40.3198 37.8106 41.2322C38.6668 42.1445 39.7794 42.6007 41.1484 42.6007C42.0355 42.6201 42.909 42.3802 43.6617 41.9102L44.569 42.8769L45.3797 42.1781L44.4862 41.228C45.3424 40.3248 45.7705 39.18 45.7705 37.7935C45.7705 36.407 45.3401 35.2516 44.4793 34.3273ZM43.7184 40.3884L42.4051 38.9632L41.5944 39.6537L42.9215 41.0913C42.3866 41.4124 41.7722 41.577 41.1484 41.5663C40.1154 41.5663 39.2868 41.2105 38.6626 40.4989C38.0384 39.7872 37.7263 38.8817 37.7263 37.7825C37.7263 36.6777 38.0384 35.7699 38.6626 35.0592C39.2868 34.3485 40.1154 33.9945 41.1484 33.9972C42.1721 33.9972 43.0007 34.3512 43.6341 35.0592C44.2675 35.7672 44.5815 36.6749 44.5759 37.7825C44.5713 38.8219 44.2855 39.6905 43.7184 40.3884Z" fill="#162022"/>
<path d="M78.2908 42.4267L74.5346 33.1121H73.0901L69.3477 42.4267H70.6748L71.5034 40.3553H76.1393L76.9679 42.4267H78.2908ZM71.8389 39.3264L73.822 34.3135L75.7913 39.3264H71.8389Z" fill="#162022"/>
<path d="M62.5649 42.4213H62.8715V36.0688L61.7584 35.7622V41.2681C61.4041 41.3004 61.0641 41.4237 60.7715 41.6263C60.4789 41.8288 60.2438 42.1037 60.0889 42.424H62.5622L62.5649 42.4213Z" fill="#162022"/>
<path d="M63.4048 34.0899C62.2751 34.0208 61.7076 32.4327 61.4024 31.5875C61.3375 31.4066 61.2822 31.2492 61.2284 31.1277L60.2106 31.5751C60.2479 31.6621 60.2976 31.8016 60.3556 31.9632C60.7202 32.9768 61.4756 35.0856 63.3357 35.2002C64.6697 35.283 66.6501 36.2621 66.6501 38.6222C66.6682 39.5486 66.4261 40.4615 65.9513 41.2571C65.5797 41.2742 65.2197 41.3916 64.9095 41.5968C64.5992 41.8021 64.3503 42.0874 64.1892 42.4227H66.4843C66.5175 42.3826 66.552 42.3384 66.5851 42.2942C67.0878 41.6438 67.7645 40.4327 67.7645 38.6236C67.7672 35.8244 65.5729 34.2252 63.4048 34.0899Z" fill="#162022"/>
<path d="M96.2365 35.2098L96.1743 35.0717C95.8981 34.413 95.4189 33.3096 94.1774 33.3096C92.1723 33.3096 91.8132 31.8596 91.7801 31.698L90.6877 31.9051C90.8382 32.6992 91.6351 34.1382 93.5877 34.384L90.3162 42.1823L86.3114 33.3441V33.311H86.2962V33.3027L86.2741 33.3124C85.0644 33.3386 84.5976 34.4171 84.3187 35.0717L84.2565 35.2098C84.0259 35.7387 82.5635 39.5999 81.9351 41.2599C81.5706 41.2831 81.2189 41.4029 80.916 41.607C80.6131 41.8111 80.37 42.0921 80.2117 42.4213H82.6864C83.4818 40.3125 85.0533 36.1654 85.2757 35.6545L85.3406 35.504C85.4441 35.2374 85.575 34.9824 85.7314 34.743L88.7889 41.4863C88.394 41.691 88.0765 42.0187 87.8843 42.4199H91.4279L94.6911 34.6436C94.8911 34.9049 95.0503 35.195 95.1635 35.504L95.2284 35.6545C95.4203 36.0936 96.6176 39.245 97.4517 41.4546C97.0467 41.6587 96.7208 41.9914 96.5251 42.4005H98.9998C98.8948 42.1478 96.5251 35.8713 96.2365 35.2098Z" fill="#162022"/>
<path d="M5.98376 37.9165C6.48936 37.3748 6.77111 36.6619 6.77239 35.9209C6.77367 35.18 6.4944 34.4661 5.99067 33.9227C5.46867 33.3823 4.75652 33.1121 3.85428 33.1121H0.988764C0.365937 36.1788 0.0348796 39.2976 0 42.4267H1.24287C1.25761 41.1811 1.32069 39.9474 1.43208 38.7257H3.85705C4.74915 38.7257 5.45807 38.456 5.98376 37.9165ZM1.53151 37.6927C1.66408 36.4959 1.84083 35.3138 2.06178 34.1464H3.71895C3.96394 34.1362 4.20854 34.1747 4.4385 34.2598C4.66846 34.345 4.87922 34.4749 5.05852 34.6422C5.39074 34.9844 5.57655 35.4426 5.57655 35.9196C5.57655 36.3965 5.39074 36.8547 5.05852 37.197C4.87905 37.364 4.66825 37.4938 4.43833 37.5789C4.20841 37.664 3.96391 37.7027 3.71895 37.6927H1.53151Z" fill="#162022"/>
<path d="M95.241 29.5131C95.1733 29.3585 95.096 29.1651 95.0076 28.9442C94.2315 27.0108 92.6199 22.9922 88.9314 22.9922C84.6697 22.9922 83.1865 26.8161 82.3897 28.8696C82.3055 29.0864 82.2281 29.2839 82.1549 29.462C81.3926 31.296 80.9549 32.0431 79.6844 32.0431C78.4139 32.0431 77.5577 30.234 77.3243 29.5366C77.1365 28.9704 76.4046 26.8644 76.0649 25.8908H74.8855C75.1037 26.5164 76.0552 29.248 76.2665 29.8957C76.6711 31.1095 77.8463 33.1631 79.6816 33.1631C81.8207 33.1631 82.5112 31.5059 83.1796 29.897C83.2556 29.7134 83.3357 29.5049 83.4241 29.2798C84.1739 27.3464 85.4278 24.1122 88.9286 24.1122C91.8604 24.1122 93.2317 27.5287 93.9678 29.3598C94.0631 29.5946 94.1445 29.799 94.2163 29.9633C94.8336 31.3623 95.7686 31.6937 96.5392 31.7241C96.5392 31.7241 96.7932 33.1976 96.8457 34.1422L97.9892 33.9212C97.9892 33.9212 97.8082 31.2684 97.5528 30.5392L96.9217 30.6C96.4176 30.6511 95.7713 30.7146 95.241 29.5131Z" fill="#162022"/>
<path d="M68.8812 33.3108L68.0733 30.582L67.6148 30.6276C66.9561 30.6939 66.2173 30.6124 65.7339 29.5131C65.6649 29.3585 65.5875 29.1651 65.4978 28.9428C64.7231 27.0094 63.1115 22.9922 59.4215 22.9922C55.1598 22.9922 53.6766 26.8161 52.8798 28.8696C52.7956 29.0864 52.7183 29.2839 52.6451 29.462C51.8828 31.296 51.445 32.0431 50.1745 32.0431C48.9316 32.0431 48.0478 30.234 47.8144 29.5366C47.6349 28.9967 46.9196 26.9763 46.537 25.8977H45.3577C45.6711 26.783 46.5619 29.2949 46.7608 29.8888C47.164 31.1026 48.3392 33.1561 50.1745 33.1561C52.3136 33.1561 53.0041 31.499 53.6725 29.8901C53.7484 29.7065 53.8285 29.4979 53.9169 29.2728C54.6668 27.3395 55.9207 24.1053 59.4215 24.1053C62.3533 24.1053 63.7246 27.5218 64.4607 29.3529C64.5546 29.5891 64.6374 29.7935 64.7092 29.9578C65.2243 31.1261 66.0792 31.7268 67.2544 31.7531L67.8068 33.6257L68.8812 33.3108Z" fill="#162022"/>
<path d="M44.2662 24.3883H47.7808L49.873 30.1359L50.9184 29.7548L48.5583 23.2766H44.2662C42.6754 23.2766 42.5262 25.6243 42.5138 25.9005H43.6282C43.6655 25.3315 43.8989 24.3883 44.2662 24.3883Z" fill="#162022"/>
<path d="M73.8321 24.3883H77.3467L79.443 30.1359L80.487 29.7548L78.1269 23.2766H73.8348C72.244 23.2766 72.0948 25.6243 72.0824 25.9005H73.1969C73.2286 25.3315 73.4648 24.3883 73.8321 24.3883Z" fill="#162022"/>
<path d="M50.1413 42.4183C50.9368 40.3082 52.5856 35.9609 52.8079 35.4527L52.8729 35.3036C53.2016 34.5357 53.41 34.214 53.8464 34.214H57.8375V33.1023H53.8464C52.6036 33.1023 52.1327 34.2071 51.8496 34.8644L51.7888 35.0025C51.5471 35.5549 49.9659 39.7337 49.3914 41.2556C49.027 41.279 48.6754 41.399 48.3725 41.603C48.0697 41.8071 47.8265 42.088 47.668 42.417H50.1413V42.4183Z" fill="#162022"/>
<path d="M56.2606 41.2999C55.948 41.3616 55.654 41.4951 55.4019 41.69C55.1497 41.8849 54.9464 42.1357 54.8079 42.4226H57.886L55.0633 35.1394L54.0262 35.5413L55.4956 39.3279H52.5223L52.1384 40.3609H55.896L56.2606 41.2999Z" fill="#162022"/>
</svg>
